<svg xmlns:xlink="http://www.w3.org/1999/xlink" xmlns="http://www.w3.org/2000/svg" height="16" viewBox="0 0 16 16" width="16" version="1.1"><path d="m7.251221 4.2145388c-.549143-.4552525-1.2488781-.7145388-1.951221-.7145388-1.5719593 0-2.8 1.2269253-2.8 2.7970027 0 .5878515.158291 1.1598348.483492 1.7618948.6414654 1.1875754 1.5644044 2.1358244 4.4829309 4.7799304l.5348542.4864596.5326254-.4807607c2.9306205-2.660747 3.8471674-3.6039919 4.486777-4.7931984.3223805-.5993922.4793205-1.1689848.4793205-1.7543257 0-1.5700774-1.2280407-2.7970027-2.8-2.7970027-.7029148 0-1.4032175.2597087-1.9497845.7133288l-.0367779.0309601c-.1203966.1029087-.2318185.2143106-.3329071.3329122l-.3805305.4464557-.3805305-.4464557c-.1010886-.1186016-.2125105-.2300035-.3301434-.3305672z" fill="none" stroke="#000000" stroke-opacity="0.54"></path></svg>