<svg xmlns:xlink="http://www.w3.org/1999/xlink" xmlns="http://www.w3.org/2000/svg" width="16" height="16" viewBox="0 0 16 16" version="1.1"><path fill="#F53D2F" d="m7.5718913 3.830906l.0395416.0333051c.1397621.1194612.2698939.2494171.3885671.3886499.1186733-.1392328.2488051-.2691887.3885671-.3886499l.0395416-.0333051c.6252617-.5189518 1.4350848-.830906 2.2718913-.830906 1.848 0 3.3 1.4506812 3.3 3.2970027 0 2.2659401-2.04 4.1122616-5.13 6.9177112l-.87.7852861-.87-.7912807c-3.09-2.799455-5.13-4.6457765-5.13-6.9117166 0-1.8463215 1.452-3.2970027 3.3-3.2970027.8368065 0 1.6466296.3119542 2.2718913.830906z"></path></svg>