<svg xmlns:xlink="http://www.w3.org/1999/xlink" xmlns="http://www.w3.org/2000/svg" viewBox="0 0 7 11" class="shopee-svg-icon icon-arrow-right-small" width="7"  height="11" ><path d="M2.305922 9.81856l4.4069956-4.385381c.1957415-.194782.1965198-.511364.0017382-.707105a.26384055.26384055 0 0 0-.000868-.00087L2.2618625.273278 2.26115.273991C2.1199955.146113 1.9327221.068212 1.7272539.068212c-.4393237 0-.7954659.356142-.7954659.795466 0 .205468.077901.392741.205779.533896l-.0006632.000663.0226101.02261c.0034906.003557.0070143.00708.0105706.010571L4.5319862 4.79332c.1562097.156209.1562097.409475 0 .565685-.0002318.000232-.0004639.000463-.0006962.000694L1.1382882 8.73606l.0009482.000953c-.128869.141365-.2074484.329372-.2074484.535733 0 .439324.3561422.795466.7954659.795466.2049545 0 .391805-.077512.5328365-.204821l.0003877.00039.0097205-.009673c.012278-.011471.0241922-.023327.0357234-.035548z" fill-rule="nonzero" fill="#555555"></path></svg>