<svg xmlns:xlink="http://www.w3.org/1999/xlink" xmlns="http://www.w3.org/2000/svg" viewBox="0 0 9.5 8" class="shopee-svg-icon rating-stars__star icon-rating-colored" width="14"  height="14" ><defs><linearGradient id="ratingStarGradient" x1="50%" x2="50%" y1="0%" y2="100%"><stop offset="0" stop-color="#ffca11"></stop><stop offset="1" stop-color="#ffad27"></stop></linearGradient><polygon id="ratingStar" points="14.910357 6.35294118 12.4209136 7.66171903 12.896355 4.88968305 10.8823529 2.92651626 13.6656353 2.52208166 14.910357 0 16.1550787 2.52208166 18.9383611 2.92651626 16.924359 4.88968305 17.3998004 7.66171903"></polygon><linearGradient id="ratingStarGradient" x1="50%" x2="50%" y1="0%" y2="100%"><stop offset="0" stop-color="#ffca11"></stop><stop offset="1" stop-color="#ffad27"></stop></linearGradient><linearGradient id="ratingStarGradient" x1="50%" x2="50%" y1="0%" y2="100%"><stop offset="0" stop-color="#ffca11"></stop><stop offset="1" stop-color="#ffad27"></stop></linearGradient><linearGradient id="ratingStarGradient" x1="50%" x2="50%" y1="0%" y2="100%"><stop offset="0" stop-color="#ffca11"></stop><stop offset="1" stop-color="#ffad27"></stop></linearGradient><linearGradient id="ratingStarGradient" x1="50%" x2="50%" y1="0%" y2="100%"><stop offset="0" stop-color="#ffca11"></stop><stop offset="1" stop-color="#ffad27"></stop></linearGradient><linearGradient id="ratingStarGradient" x1="50%" x2="50%" y1="0%" y2="100%"><stop offset="0" stop-color="#ffca11"></stop><stop offset="1" stop-color="#ffad27"></stop></linearGradient><linearGradient id="ratingStarGradient" x1="50%" x2="50%" y1="0%" y2="100%"><stop offset="0" stop-color="#ffca11"></stop><stop offset="1" stop-color="#ffad27"></stop></linearGradient><linearGradient id="ratingStarGradient" x1="50%" x2="50%" y1="0%" y2="100%"><stop offset="0" stop-color="#ffca11"></stop><stop offset="1" stop-color="#ffad27"></stop></linearGradient><linearGradient id="ratingStarGradient" x1="50%" x2="50%" y1="0%" y2="100%"><stop offset="0" stop-color="#ffca11"></stop><stop offset="1" stop-color="#ffad27"></stop></linearGradient><linearGradient id="ratingStarGradient" x1="50%" x2="50%" y1="0%" y2="100%"><stop offset="0" stop-color="#ffca11"></stop><stop offset="1" stop-color="#ffad27"></stop></linearGradient><linearGradient id="ratingStarGradient" x1="50%" x2="50%" y1="0%" y2="100%"><stop offset="0" stop-color="#ffca11"></stop><stop offset="1" stop-color="#ffad27"></stop></linearGradient><linearGradient id="ratingStarGradient" x1="50%" x2="50%" y1="0%" y2="100%"><stop offset="0" stop-color="#ffca11"></stop><stop offset="1" stop-color="#ffad27"></stop></linearGradient><linearGradient id="ratingStarGradient" x1="50%" x2="50%" y1="0%" y2="100%"><stop offset="0" stop-color="#ffca11"></stop><stop offset="1" stop-color="#ffad27"></stop></linearGradient><linearGradient id="ratingStarGradient" x1="50%" x2="50%" y1="0%" y2="100%"><stop offset="0" stop-color="#ffca11"></stop><stop offset="1" stop-color="#ffad27"></stop></linearGradient><linearGradient id="ratingStarGradient" x1="50%" x2="50%" y1="0%" y2="100%"><stop offset="0" stop-color="#ffca11"></stop><stop offset="1" stop-color="#ffad27"></stop></linearGradient><linearGradient id="ratingStarGradient" x1="50%" x2="50%" y1="0%" y2="100%"><stop offset="0" stop-color="#ffca11"></stop><stop offset="1" stop-color="#ffad27"></stop></linearGradient><linearGradient id="ratingStarGradient" x1="50%" x2="50%" y1="0%" y2="100%"><stop offset="0" stop-color="#ffca11"></stop><stop offset="1" stop-color="#ffad27"></stop></linearGradient><linearGradient id="ratingStarGradient" x1="50%" x2="50%" y1="0%" y2="100%"><stop offset="0" stop-color="#ffca11"></stop><stop offset="1" stop-color="#ffad27"></stop></linearGradient><linearGradient id="ratingStarGradient" x1="50%" x2="50%" y1="0%" y2="100%"><stop offset="0" stop-color="#ffca11"></stop><stop offset="1" stop-color="#ffad27"></stop></linearGradient><linearGradient id="ratingStarGradient" x1="50%" x2="50%" y1="0%" y2="100%"><stop offset="0" stop-color="#ffca11"></stop><stop offset="1" stop-color="#ffad27"></stop></linearGradient><linearGradient id="ratingStarGradient" x1="50%" x2="50%" y1="0%" y2="100%"><stop offset="0" stop-color="#ffca11"></stop><stop offset="1" stop-color="#ffad27"></stop></linearGradient><linearGradient id="ratingStarGradient" x1="50%" x2="50%" y1="0%" y2="100%"><stop offset="0" stop-color="#ffca11"></stop><stop offset="1" stop-color="#ffad27"></stop></linearGradient><polygon id="ratingStar" points="14.910357 6.35294118 12.4209136 7.66171903 12.896355 4.88968305 10.8823529 2.92651626 13.6656353 2.52208166 14.910357 0 16.1550787 2.52208166 18.9383611 2.92651626 16.924359 4.88968305 17.3998004 7.66171903"></polygon></defs><g fill="url(&quot;#ratingStarGradient&quot;)" fill-rule="evenodd" stroke="none" stroke-width="1"><g transform="translate(-876 -1270)" fill="url(&quot;#ratingStarGradient&quot;)"><g transform="translate(155 992)" fill="url(&quot;#ratingStarGradient&quot;)"><g transform="translate(600 29)" fill="url(&quot;#ratingStarGradient&quot;)"><g transform="translate(10 239)" fill="url(&quot;#ratingStarGradient&quot;)"><g transform="translate(101 10)" fill="url(&quot;#ratingStarGradient&quot;)"><use stroke="#FFA727" stroke-width="0.5px" xlink:href="#ratingStar" fill="url(&quot;#ratingStarGradient&quot;)"></use></g></g></g></g></g></g></svg>